<svg id="account_circle-24px" xmlns="http://www.w3.org/2000/svg" width="43.005" height="43.005" viewBox="0 0 43.005 43.005">
  <path id="Path_54" data-name="Path 54" d="M0,0H43V43H0Z" fill="none"/>
  <path id="Path_55" data-name="Path 55" d="M19.919,2A17.919,17.919,0,1,0,37.837,19.919,17.925,17.925,0,0,0,19.919,2ZM11.085,31.172c.771-1.613,5.465-3.19,8.834-3.19s8.081,1.577,8.834,3.19a14.2,14.2,0,0,1-17.668,0Zm20.23-2.6c-2.562-3.118-8.78-4.175-11.4-4.175s-8.834,1.057-11.4,4.175a14.335,14.335,0,1,1,22.793,0ZM19.919,9.167a6.272,6.272,0,1,0,6.272,6.272A6.256,6.256,0,0,0,19.919,9.167Zm0,8.959a2.688,2.688,0,1,1,2.688-2.688A2.684,2.684,0,0,1,19.919,18.127Z" transform="translate(1.584 1.584)" fill="#fff"/>
</svg>
