<svg id="baby_icon" data-name="baby icon" xmlns="http://www.w3.org/2000/svg" width="57.456" height="63.961" viewBox="0 0 57.456 63.961">
  <path id="Path_63" data-name="Path 63" d="M239.687,1739.576a3.2,3.2,0,0,0-3.058,2.276l-3.147,10.492H220.535v-19.152a3.193,3.193,0,0,0-3.192-3.192h-3.192A19.172,19.172,0,0,0,195,1749.152c0,1.005-.006,5.465.016,6.47a3.239,3.239,0,0,0,.147.923l6.384,19.152a3.189,3.189,0,0,0,3.029,2.183h25.536a3.2,3.2,0,0,0,3.058-2.276l8.893-29.644h10.393v-6.384Zm-38.3,9.576a12.566,12.566,0,0,1,.792-4.271l7.463,7.463h-8.255Zm12.768-1.321-8.3-8.3a12.663,12.663,0,0,1,8.3-3.144Zm13.585,23.665h-20.86l-4.258-12.768h28.948Z" transform="translate(-194.999 -1730)" fill="#3e7879"/>
  <circle id="Ellipse_8" data-name="Ellipse 8" cx="6.5" cy="6.5" r="6.5" transform="translate(6.456 50.961)" fill="#3e7879"/>
  <ellipse id="Ellipse_9" data-name="Ellipse 9" cx="5.5" cy="6.5" rx="5.5" ry="6.5" transform="translate(26.456 50.961)" fill="#3e7879"/>
</svg>
