<svg xmlns="http://www.w3.org/2000/svg" width="58.037" height="64.186" viewBox="0 0 58.037 64.186">
  <g id="hand_icon" data-name="hand icon" transform="translate(-480 -1296.775)">
    <path id="Path_72" data-name="Path 72" d="M504.436,1332.1a12.45,12.45,0,0,0,12.437-12.437c0-6.268-8.86-18.1-12.437-22.886-2.067,2.764-12.437,16.165-12.437,22.886A12.45,12.45,0,0,0,504.436,1332.1Zm0-25.951c3.363,4.916,6.909,11.027,6.909,13.514a6.909,6.909,0,0,1-13.818,0C497.527,1317.176,501.073,1311.063,504.436,1306.147Z" transform="translate(21.164 0)" fill="#3e7879"/>
    <path id="Path_73" data-name="Path 73" d="M535.273,1320.054H514.308l.81-.81a2.767,2.767,0,0,0,.52-3.189l-2.764-5.527a2.771,2.771,0,0,0-3.347-1.387l-13.147,4.383a2.759,2.759,0,0,0-2.562-1.76H482.764a2.765,2.765,0,0,0-2.764,2.764v22.109a2.765,2.765,0,0,0,2.764,2.764h11.055a2.765,2.765,0,0,0,2.764-2.764h30.4a2.761,2.761,0,0,0,2.211-1.105l8.291-11.055a2.763,2.763,0,0,0-2.211-4.422Zm-49.746,13.818v-16.582h5.527v16.582Zm40.073-2.764H496.582v-11.826l12.42-4.137.8,1.6-4.118,4.118a2.763,2.763,0,0,0,1.954,4.718h22.109Z" transform="translate(0 21.561)" fill="#3e7879"/>
  </g>
</svg>
