<?xml version="1.0" encoding="utf-8"?>
<!-- Generator: Adobe Illustrator 17.0.0, SVG Export Plug-In . SVG Version: 6.00 Build 0)  -->
<!DOCTYPE svg PUBLIC "-//W3C//DTD SVG 1.1//EN" "http://www.w3.org/Graphics/SVG/1.1/DTD/svg11.dtd">
<svg version="1.1" id="Layer_2" xmlns="http://www.w3.org/2000/svg" xmlns:xlink="http://www.w3.org/1999/xlink" x="0px" y="0px"
	 width="392px" height="178px" viewBox="0 0 392 178" enable-background="new 0 0 392 178" xml:space="preserve">
<path fill="#EAAE86" d="M131.882,52.427h2.645v27.047l-2.645-2.644V52.427z M127.187,52.427h10.828v2.205l-4.164,0.616h-1.146
	l-5.518-0.616V52.427z M113.969,52.427l2.644,2.235v24.732h-2.644V52.427z M112.621,53.877l2.368,1.163l-4.453-0.379v-2.235h9.266
	l14.724,20.208v6.838h-3.476L112.621,53.877z M110.48,77.19l4.368-0.616h1.177l5.282,0.616v2.204H110.48V77.19z"/>
<path fill="#EAAE86" d="M153.536,77.278l4.638-0.615h2.745l5.268,0.615v2.116h-12.651V77.278z M146.635,69.168h11.082l0.923,2.391
	h-12.691L146.635,69.168z M151.053,52.37h4.239l9.233,27.023h-7.015l-7.005-22.039l1.536-2.073l-7.84,24.111h-2.433L151.053,52.37z
	 M139.384,77.19l4.224-0.616h0.731l3.894,0.616v2.204h-8.848V77.19z"/>
<path fill="#EAAE86" d="M175.312,65.151c0-4.227,0-8.497-0.123-12.724h7.138c-0.123,4.146-0.123,8.414-0.123,12.724v1.489
	c0,4.257,0,8.526,0.123,12.753h-7.138c0.123-4.146,0.123-8.414,0.123-12.724V65.151z M179.613,76.574l6.19,0.616v2.204h-14.06V77.19
	l6.071-0.616H179.613z M168.102,54.746l2.972-2.319l-1.076,7.632h-3.424l0.151-7.632h24.098l0.122,7.632h-3.395l-1.076-7.632
	l2.942,2.319H168.102z"/>
<path fill="#EAAE86" d="M216.929,55.01l-4.366-0.379v-2.205h9.792v2.205l-4.219,0.379H216.929z M210.401,76.425
	c3.683,0,5.886-2.461,5.886-8.653V52.427h2.674v15.347c0,8.708-4.039,12.383-10.824,12.383c-6.069,0-10.477-2.999-10.477-10.958
	v-4.463c0-4.049,0-8.199-0.124-12.309h7.139c-0.123,4.028-0.123,8.178-0.123,12.309v3.154
	C204.553,74.179,206.509,76.425,210.401,76.425z M194.616,54.631v-2.205h13.387v2.205l-6.106,0.616h-1.176L194.616,54.631z"/>
<path fill="#EAAE86" d="M232.827,64.705h4.835c4.077,0,5.322-2.381,5.322-5.024c0-3.3-1.787-4.892-5.138-4.892h-5.078v-2.362h6.748
	c6.457,0,10.032,2.55,10.032,6.809c0,3.133-2.335,6.353-9.608,6.745l0.035-0.417c6.478,0.198,8.107,2.323,8.83,6.727l1.093,6.34
	l-3.374-2.114l6.151,0.672v2.204c-1.952,0.453-2.612,0.588-4.495,0.588c-3.492,0-5.549-1.011-5.952-4.203l-0.764-4.764
	c-0.406-2.763-1.421-4.018-3.88-4.018h-4.759V64.705z M229.322,65.151c0-4.227,0-8.497-0.123-12.724h7.02
	c-0.124,4.18-0.124,8.38-0.124,12.839v1.26c0,4.372,0,8.64,0.124,12.868h-7.02c0.123-4.146,0.123-8.414,0.123-12.724V65.151z
	 M233.415,76.574l5.958,0.616v2.204h-13.21V77.19l5.958-0.616H233.415z M226.163,54.631v-2.205h6.606v2.821h-0.648L226.163,54.631z"
	/>
<path fill="#EAAE86" d="M269.824,77.278l4.638-0.615h2.745l5.269,0.615v2.116h-12.652V77.278z M262.923,69.168h11.082l0.922,2.391
	h-12.69L262.923,69.168z M267.341,52.37h4.239l9.234,27.023h-7.017l-7.005-22.039l1.537-2.073l-7.84,24.111h-2.433L267.341,52.37z
	 M255.672,77.19l4.224-0.616h0.731l3.893,0.616v2.204h-8.847V77.19z"/>
<path fill="#EAAE86" d="M307.965,71.352l-0.41,8.041h-14.652v-2.348h13.276l-3.117,2.348l1.612-8.041H307.965z M289.334,52.427
	h7.138c-0.124,4.168-0.124,8.437-0.124,12.724v2.162c0,3.608,0,7.876,0.124,12.081h-7.138c0.122-4.168,0.122-8.437,0.122-11.865
	v-2.377C289.456,60.9,289.456,56.632,289.334,52.427z M292.903,76.574v2.82h-6.605V77.19l5.957-0.616H292.903z M286.298,54.631
	v-2.205h13.535v2.205l-6.075,0.616h-1.503L286.298,54.631z"/>
<path fill="#F4AB9D" d="M74.083,89.04h6.457v2.205l-5.81,0.616h-0.647V89.04z M70.659,104.143l0.148-15.102h6.845
	c-0.124,4.205-0.124,8.474-0.124,12.723v1.519c0,4.287,0,8.556,0.124,12.724h-7.115C70.659,111.802,70.629,107.534,70.659,104.143z
	 M67.592,113.802l5.251-0.615h1.887l5.959,0.615v2.205H67.592V113.802z M50.209,89.04h6.969l7.39,19.977h-1.366l6.975-19.977h2.709
	l-9.469,26.967h-3.166L50.209,89.04z M49.96,89.04h2.345l0.311,14.215v12.751H49.96V89.04z M46.355,89.04h5.863l0.059,2.821h-0.671
	l-5.252-0.616V89.04z M46,113.802l4.783-0.615h1.177l4.051,0.615v2.205H46V113.802z"/>
<path fill="#F4AB9D" d="M107.588,91.624l-4.366-0.379V89.04h9.792v2.205l-4.219,0.379H107.588z M101.06,113.039
	c3.683,0,5.886-2.461,5.886-8.653V89.04h2.674v15.347c0,8.708-4.039,12.383-10.824,12.383c-6.069,0-10.477-2.999-10.477-10.958
	v-4.464c0-4.049,0-8.199-0.124-12.309h7.139c-0.123,4.027-0.123,8.178-0.123,12.309v3.154
	C95.212,110.793,97.169,113.039,101.06,113.039z M85.274,91.245V89.04h13.388v2.205l-6.106,0.616h-1.176L85.274,91.245z"/>
<path fill="#F4AB9D" d="M144.396,89.04h6.457v2.205l-5.81,0.616h-0.647V89.04z M140.972,104.143l0.149-15.102h6.845
	c-0.124,4.205-0.124,8.474-0.124,12.723v1.519c0,4.287,0,8.556,0.124,12.724h-7.115
	C140.972,111.802,140.943,107.534,140.972,104.143z M137.905,113.802l5.252-0.615h1.887l5.959,0.615v2.205h-13.097V113.802z
	 M120.523,89.04h6.969l7.39,19.977h-1.366l6.975-19.977h2.709l-9.469,26.967h-3.166L120.523,89.04z M120.274,89.04h2.345
	l0.311,14.215v12.751h-2.656V89.04z M116.668,89.04h5.863l0.059,2.821h-0.671l-5.252-0.616V89.04z M116.314,113.802l4.783-0.615
	h1.177l4.051,0.615v2.205h-10.011V113.802z"/>
<path fill="#F4AB9D" d="M169.173,110.422c0-2.165-1.068-3.147-3.543-4.247l-1.737-0.793c-4.838-2.205-7.622-4.644-7.622-9.186
	c0-4.927,3.981-7.919,10.2-7.919c2.928,0,5.754,0.772,7.756,2.086l-0.334,5.75h-3.766l-1.001-6.198l3.309,1.177v2.053
	c-2.19-1.585-3.738-2.431-5.854-2.431c-2.343,0-4.231,1.482-4.231,3.731c0,2.171,1.299,3.304,3.731,4.396l1.927,0.881
	c5.24,2.36,7.393,4.622,7.393,8.776c0,4.843-3.708,8.271-10.723,8.271c-3.078,0-6.548-0.689-8.909-2.146l0.245-6.101h3.825
	l1.068,6.646l-3.171-1.001v-1.97c2.604,1.403,4.296,2.135,6.939,2.135C167.593,114.333,169.173,112.647,169.173,110.422z"/>
<path fill="#585858" d="M193.654,100.309c0-0.503-0.074-0.954-0.222-1.353c-0.147-0.399-0.343-0.746-0.585-1.041
	c-0.642,0.556-1.193,1.176-1.652,1.861c-0.46,0.685-0.69,1.488-0.69,2.407c0,0.485,0.121,0.863,0.364,1.132
	c0.243,0.269,0.529,0.403,0.859,0.403c0.381,0,0.698-0.122,0.95-0.364c0.251-0.244,0.446-0.543,0.586-0.898
	c0.138-0.356,0.237-0.729,0.299-1.12C193.623,100.947,193.654,100.604,193.654,100.309z M189.438,102.182
	c0-1.041,0.247-1.943,0.742-2.706s1.132-1.5,1.913-2.212c-0.244-0.156-0.503-0.273-0.781-0.352
	c-0.278-0.078-0.547-0.117-0.807-0.117c-0.572,0-1.184,0.143-1.835,0.43c-0.651,0.286-1.249,0.767-1.796,1.444
	c-0.546,0.676-1.001,1.583-1.366,2.72c-0.364,1.136-0.546,2.554-0.546,4.255c0,1.405,0.168,2.611,0.507,3.617
	c0.338,1.007,0.802,1.835,1.392,2.485c0.589,0.651,1.275,1.128,2.056,1.431c0.781,0.303,1.613,0.455,2.498,0.455
	c1.058,0,2.004-0.273,2.837-0.82c0.832-0.547,1.596-1.301,2.29-2.265c0.693-0.962,1.339-2.09,1.938-3.382
	c0.599-1.292,1.192-2.684,1.782-4.177l0.99,0.261c-0.348,0.851-0.707,1.727-1.081,2.629c-0.373,0.901-0.781,1.791-1.222,2.666
	c-0.443,0.877-0.929,1.705-1.458,2.486c-0.53,0.78-1.137,1.466-1.822,2.055c-0.685,0.591-1.453,1.06-2.303,1.406
	c-0.851,0.347-1.805,0.521-2.863,0.521c-1.076,0-2.095-0.178-3.058-0.533c-0.963-0.355-1.808-0.894-2.537-1.614
	c-0.729-0.72-1.31-1.627-1.743-2.719c-0.434-1.093-0.651-2.377-0.651-3.852c0-1.491,0.246-2.879,0.742-4.163
	c0.494-1.284,1.122-2.395,1.887-3.331c0.763-0.937,1.605-1.674,2.524-2.212c0.919-0.538,1.795-0.806,2.628-0.806
	c0.971,0,1.838,0.251,2.603,0.754c0.138-0.104,0.273-0.213,0.403-0.325c0.13-0.113,0.264-0.239,0.403-0.378l0.573,0.807
	c-0.104,0.104-0.208,0.2-0.313,0.286c-0.104,0.087-0.208,0.183-0.312,0.287c0.312,0.381,0.568,0.832,0.767,1.353
	c0.2,0.52,0.3,1.101,0.3,1.743c0,0.712-0.083,1.34-0.247,1.887c-0.165,0.547-0.39,1.011-0.676,1.392
	c-0.287,0.383-0.612,0.668-0.976,0.859c-0.364,0.192-0.747,0.286-1.145,0.286c-0.208,0-0.443-0.047-0.703-0.143
	c-0.26-0.095-0.503-0.243-0.729-0.443c-0.225-0.199-0.415-0.46-0.572-0.781S189.438,102.651,189.438,102.182z"/>
<path fill="#585858" d="M208.226,97.603c-0.468,0-0.902,0.1-1.3,0.299c-0.4,0.2-0.747,0.473-1.041,0.82
	c-0.295,0.347-0.529,0.763-0.702,1.249c-0.174,0.486-0.26,1.023-0.26,1.613c0,1.024,0.173,1.944,0.52,2.758
	c0.347,0.816,0.82,1.51,1.419,2.083c0.599,0.573,1.297,1.01,2.095,1.314c0.798,0.303,1.657,0.455,2.576,0.455h0.495
	c0.138-0.538,0.234-1.101,0.285-1.692c0.052-0.589,0.078-1.231,0.078-1.926c-0.035-1.335-0.169-2.45-0.403-3.343
	c-0.234-0.894-0.533-1.609-0.898-2.147c-0.364-0.537-0.793-0.92-1.288-1.145C209.306,97.715,208.781,97.603,208.226,97.603z
	 M206.743,113.373c0.971,0,1.904-0.356,2.798-1.067c0.892-0.712,1.591-1.744,2.095-3.097h-0.208c-1.076,0-2.069-0.183-2.98-0.547
	s-1.701-0.871-2.368-1.522c-0.668-0.651-1.193-1.431-1.575-2.342c-0.382-0.911-0.573-1.913-0.573-3.006
	c0-0.607,0.083-1.222,0.248-1.847c0.164-0.624,0.42-1.184,0.767-1.678c0.347-0.494,0.798-0.898,1.353-1.209
	c0.555-0.313,1.214-0.469,1.978-0.469c0.624,0,1.24,0.126,1.847,0.377c0.607,0.252,1.153,0.682,1.639,1.289
	c0.485,0.608,0.881,1.428,1.184,2.459c0.303,1.032,0.455,2.338,0.455,3.917c0,0.59-0.026,1.175-0.078,1.757
	c-0.052,0.581-0.147,1.15-0.286,1.704c0.677-0.121,1.279-0.338,1.808-0.65c0.529-0.313,0.998-0.69,1.406-1.132
	c0.407-0.443,0.768-0.946,1.08-1.509c0.313-0.563,0.599-1.167,0.859-1.809l1.015,0.261c-0.364,0.989-0.785,1.83-1.262,2.524
	c-0.477,0.693-0.989,1.275-1.536,1.744c-0.546,0.468-1.119,0.828-1.717,1.08c-0.599,0.252-1.22,0.421-1.861,0.507
	c-0.244,0.851-0.563,1.648-0.962,2.394c-0.4,0.746-0.885,1.397-1.458,1.951c-0.573,0.556-1.236,0.994-1.991,1.315
	c-0.754,0.321-1.6,0.481-2.537,0.481c-0.781,0-1.566-0.16-2.355-0.481c-0.789-0.321-1.5-0.816-2.134-1.483
	c-0.633-0.668-1.145-1.509-1.535-2.524c-0.391-1.015-0.586-2.226-0.586-3.63c0-0.92,0.109-1.822,0.325-2.707
	c0.217-0.884,0.521-1.721,0.911-2.511c0.39-0.789,0.854-1.527,1.392-2.212c0.537-0.685,1.119-1.279,1.744-1.783l0.39,0.652
	c-0.399,0.364-0.781,0.815-1.145,1.352c-0.364,0.539-0.694,1.132-0.989,1.783c-0.295,0.651-0.53,1.337-0.702,2.056
	c-0.174,0.721-0.261,1.436-0.261,2.147c0,1.405,0.178,2.585,0.533,3.539c0.355,0.955,0.811,1.722,1.367,2.304
	c0.554,0.582,1.179,0.998,1.873,1.249C205.407,113.247,206.083,113.373,206.743,113.373z"/>
<path fill="#585858" d="M218.193,102.989c0.554-1.63,1.153-2.849,1.796-3.656c0.642-0.807,1.396-1.21,2.264-1.21
	c0.382,0,0.742,0.086,1.08,0.26c0.338,0.174,0.637,0.455,0.898,0.846c0.26,0.39,0.463,0.898,0.611,1.522
	c0.147,0.624,0.222,1.388,0.222,2.29c0.781-1.995,1.57-3.418,2.368-4.267c0.798-0.851,1.665-1.275,2.603-1.275
	c0.346,0,0.698,0.069,1.053,0.207c0.355,0.139,0.677,0.387,0.963,0.742c0.286,0.356,0.524,0.838,0.715,1.445
	c0.191,0.608,0.295,1.37,0.313,2.29c0.468-0.92,1.054-1.666,1.757-2.238c0.702-0.573,1.479-0.859,2.329-0.859
	c0.416,0,0.832,0.075,1.25,0.222c0.415,0.147,0.784,0.394,1.105,0.742c0.321,0.347,0.586,0.802,0.794,1.366
	c0.208,0.564,0.312,1.262,0.312,2.095c0,0.244-0.017,0.56-0.052,0.951c-0.035,0.39-0.078,0.82-0.13,1.288
	c-0.052,0.468-0.104,0.946-0.155,1.431c-0.053,0.486-0.105,0.941-0.156,1.366c-0.053,0.426-0.096,0.799-0.131,1.12
	c-0.035,0.321-0.052,0.543-0.052,0.663c0,1.024,0.121,1.769,0.364,2.238c0.243,0.468,0.685,0.702,1.327,0.702
	c0.486,0,0.981-0.29,1.484-0.872c0.503-0.582,1.014-1.349,1.535-2.304c0.521-0.954,1.05-2.047,1.588-3.279
	c0.538-1.231,1.084-2.507,1.639-3.826l1.015,0.261c-0.503,1.197-1.024,2.464-1.561,3.799c-0.538,1.336-1.123,2.567-1.757,3.695
	c-0.634,1.129-1.314,2.061-2.043,2.798c-0.729,0.737-1.536,1.106-2.42,1.106c-1.024,0-1.805-0.304-2.343-0.911
	c-0.538-0.608-0.806-1.622-0.806-3.045c0-0.624,0.043-1.288,0.13-1.991c0.086-0.702,0.185-1.405,0.299-2.107
	c0.113-0.702,0.213-1.389,0.299-2.056c0.086-0.668,0.13-1.28,0.13-1.836c0-0.312-0.025-0.624-0.078-0.936
	c-0.052-0.313-0.143-0.594-0.273-0.846c-0.13-0.251-0.304-0.451-0.521-0.599c-0.216-0.147-0.499-0.221-0.846-0.221
	c-0.433,0-0.85,0.208-1.249,0.624s-0.781,0.972-1.145,1.666c-0.364,0.694-0.702,1.488-1.015,2.381
	c-0.312,0.894-0.59,1.814-0.832,2.759c-0.244,0.945-0.46,1.882-0.651,2.81c-0.191,0.929-0.339,1.775-0.443,2.537l-1.847-0.312
	c0.174-0.85,0.316-1.609,0.429-2.277c0.113-0.667,0.238-1.422,0.378-2.264c0.138-0.841,0.264-1.688,0.377-2.537
	s0.208-1.666,0.286-2.446s0.117-1.439,0.117-1.978c0-0.728-0.139-1.327-0.416-1.796c-0.278-0.468-0.686-0.702-1.223-0.702
	c-0.503,0-0.985,0.286-1.445,0.858c-0.46,0.573-0.889,1.323-1.288,2.252c-0.399,0.928-0.772,1.977-1.12,3.149
	c-0.347,1.17-0.668,2.351-0.962,3.539c-0.295,1.189-0.555,2.329-0.781,3.422c-0.226,1.092-0.425,2.029-0.599,2.81l-1.744-0.415
	c0.243-1.198,0.46-2.412,0.651-3.644c0.174-1.058,0.33-2.22,0.469-3.487s0.208-2.498,0.208-3.695c0-0.764-0.017-1.401-0.052-1.913
	c-0.035-0.512-0.104-0.924-0.208-1.236c-0.104-0.313-0.248-0.533-0.43-0.664c-0.182-0.13-0.413-0.195-0.69-0.195
	c-0.433,0-0.876,0.313-1.327,0.938c-0.452,0.623-0.902,1.613-1.353,2.966L218.193,102.989z"/>
<path fill="#585858" d="M254.183,113.268c0.537,0,1.04-0.105,1.509-0.313c0.469-0.207,0.902-0.493,1.301-0.859
	c-0.469-0.224-0.907-0.424-1.314-0.598c-0.408-0.174-0.802-0.261-1.184-0.261c-0.66,0-1.115,0.126-1.366,0.378
	c-0.252,0.251-0.377,0.499-0.377,0.742c0,0.191,0.113,0.391,0.337,0.598C253.315,113.164,253.679,113.268,254.183,113.268z
	 M248.796,124.563c0-1.528-0.053-3.102-0.156-4.724c-0.104-1.623-0.226-3.25-0.364-4.88c-1.024,2.481-1.861,4.719-2.512,6.714
	c-0.65,1.996-0.976,3.808-0.976,5.44c0,0.781,0.148,1.448,0.443,2.004c0.295,0.555,0.738,0.832,1.328,0.832
	c0.312,0,0.603-0.086,0.871-0.261c0.269-0.173,0.503-0.468,0.702-0.884c0.2-0.416,0.36-0.971,0.482-1.666
	C248.734,126.444,248.796,125.585,248.796,124.563z M260.741,112.201c0.573,0,1.114-0.161,1.626-0.482
	c0.512-0.321,0.998-0.745,1.458-1.275c0.46-0.529,0.893-1.128,1.301-1.796c0.408-0.667,0.781-1.344,1.119-2.029
	c0.339-0.685,0.642-1.345,0.911-1.978c0.269-0.633,0.507-1.184,0.715-1.653l1.015,0.261c-0.226,0.572-0.482,1.214-0.768,1.926
	c-0.286,0.712-0.615,1.44-0.989,2.186c-0.373,0.746-0.781,1.469-1.223,2.173c-0.442,0.702-0.932,1.331-1.47,1.887
	c-0.538,0.555-1.119,1.001-1.743,1.34c-0.625,0.338-1.293,0.507-2.004,0.507c-0.695,0-1.389-0.147-2.083-0.443
	c-0.589,0.452-1.24,0.807-1.951,1.067c-0.712,0.261-1.501,0.391-2.368,0.391c-0.538,0-0.971-0.069-1.301-0.208
	s-0.585-0.308-0.768-0.507c-0.182-0.2-0.308-0.404-0.377-0.612c-0.07-0.207-0.104-0.39-0.104-0.546c0-0.347,0.078-0.655,0.234-0.923
	c0.156-0.269,0.364-0.499,0.625-0.69c0.26-0.191,0.559-0.334,0.898-0.43c0.338-0.095,0.69-0.143,1.054-0.143
	c0.589,0,1.153,0.108,1.691,0.324c0.537,0.217,1.058,0.447,1.561,0.69c0.399-0.503,0.754-1.067,1.067-1.691
	c0.313-0.624,0.572-1.27,0.781-1.938c0.208-0.668,0.368-1.331,0.482-1.991c0.113-0.659,0.169-1.276,0.169-1.847
	c0-1.336-0.221-2.299-0.663-2.889c-0.443-0.59-0.968-0.885-1.574-0.885c-0.677,0-1.332,0.209-1.966,0.625
	c-0.633,0.416-1.275,1.067-1.926,1.952c-0.651,0.884-1.319,2.008-2.004,3.37c-0.685,1.362-1.419,2.989-2.199,4.879
	c-0.086,0.156-0.156,0.322-0.208,0.494c-0.052,0.174-0.121,0.338-0.208,0.494c0.156,2.047,0.316,4.012,0.482,5.895
	c0.164,1.882,0.247,3.56,0.247,5.035c0,2.792-0.322,4.862-0.962,6.206c-0.642,1.345-1.631,2.017-2.967,2.017
	c-0.521,0-0.971-0.122-1.353-0.364c-0.382-0.244-0.699-0.572-0.951-0.989c-0.251-0.416-0.437-0.907-0.559-1.47
	c-0.122-0.564-0.183-1.168-0.183-1.809c0-1.006,0.126-2.116,0.378-3.331c0.251-1.215,0.585-2.477,1.001-3.787
	s0.901-2.659,1.458-4.047c0.554-1.388,1.136-2.766,1.744-4.137c-0.156-1.736-0.292-3.44-0.404-5.114
	c-0.113-1.674-0.169-3.292-0.169-4.854c0-1.353,0.095-2.411,0.287-3.174c0.19-0.763,0.485-1.145,0.884-1.145
	c0.121,0,0.282,0.035,0.482,0.104c0.199,0.07,0.386,0.178,0.56,0.325c0.173,0.148,0.325,0.326,0.455,0.533
	c0.13,0.208,0.194,0.452,0.194,0.729c0,0.711-0.095,1.44-0.286,2.186c-0.191,0.746-0.451,1.492-0.781,2.237
	c0,0.816,0.013,1.648,0.039,2.499c0.026,0.85,0.065,1.708,0.117,2.575c0.763-1.596,1.509-2.962,2.238-4.098
	c0.729-1.136,1.458-2.065,2.185-2.784c0.729-0.72,1.453-1.244,2.173-1.574c0.72-0.33,1.453-0.494,2.2-0.494
	c0.641,0,1.222,0.138,1.743,0.416c0.52,0.277,0.962,0.654,1.328,1.131c0.364,0.478,0.645,1.046,0.845,1.705
	c0.199,0.66,0.299,1.371,0.299,2.134c0,1.406-0.225,2.785-0.676,4.138c-0.452,1.353-1.129,2.515-2.03,3.487
	C259.899,112.132,260.289,112.201,260.741,112.201z"/>
<path fill="#585858" d="M287.909,103.249c-0.712,1.926-1.359,3.539-1.939,4.84c-0.582,1.301-1.145,2.352-1.692,3.149
	c-0.546,0.799-1.088,1.371-1.626,1.717c-0.539,0.348-1.128,0.521-1.77,0.521c-0.781,0-1.448-0.273-2.004-0.82
	c-0.555-0.547-0.901-1.392-1.04-2.537c-0.555,1.197-1.276,2.173-2.16,2.928c-0.885,0.754-1.996,1.132-3.33,1.132
	c-0.712,0-1.393-0.131-2.043-0.391c-0.651-0.261-1.228-0.663-1.731-1.21c-0.503-0.546-0.907-1.236-1.21-2.068
	c-0.303-0.833-0.455-1.813-0.455-2.941c0-1.145,0.144-2.221,0.43-3.228c0.286-1.005,0.663-1.929,1.132-2.771
	c0.468-0.841,1.01-1.591,1.627-2.251c0.615-0.659,1.253-1.214,1.912-1.666c0.66-0.451,1.319-0.798,1.978-1.04
	c0.659-0.243,1.266-0.364,1.821-0.364c0.486,0,0.954,0.061,1.406,0.182c0.451,0.122,0.854,0.317,1.21,0.585
	c0.355,0.27,0.642,0.63,0.859,1.081c0.216,0.452,0.325,1.015,0.325,1.691c0,0.799-0.152,1.492-0.455,2.082
	c-0.303,0.591-0.668,1.084-1.093,1.484c-0.425,0.399-0.858,0.72-1.3,0.962c-0.443,0.244-0.794,0.416-1.054,0.521l-0.313-1.015
	c0.052,0,0.247-0.069,0.585-0.208c0.339-0.139,0.694-0.369,1.068-0.69c0.372-0.321,0.715-0.732,1.028-1.236
	c0.312-0.503,0.468-1.119,0.468-1.847c0-0.833-0.234-1.471-0.702-1.913c-0.469-0.443-1.067-0.663-1.796-0.663
	c-0.555,0-1.206,0.199-1.952,0.598c-0.746,0.4-1.462,1.024-2.146,1.874c-0.686,0.851-1.267,1.926-1.744,3.227
	c-0.477,1.301-0.715,2.854-0.715,4.658c0,1.787,0.316,3.149,0.95,4.086c0.632,0.937,1.487,1.405,2.564,1.405
	c0.537,0,1.053-0.152,1.548-0.455c0.495-0.303,0.951-0.706,1.367-1.21c0.416-0.503,0.789-1.089,1.119-1.756
	c0.329-0.668,0.616-1.358,0.859-2.069c0-0.555,0.065-1.21,0.195-1.965c0.13-0.754,0.333-1.522,0.612-2.303l1.588,0.52
	c-0.087,0.226-0.174,0.521-0.261,0.885c-0.086,0.364-0.169,0.763-0.247,1.197c-0.078,0.434-0.143,0.881-0.194,1.34
	c-0.053,0.46-0.078,0.907-0.078,1.34c0,1.353,0.134,2.285,0.403,2.797c0.269,0.512,0.733,0.768,1.393,0.768
	c0.381,0,0.759-0.139,1.131-0.416c0.374-0.277,0.777-0.763,1.21-1.458c0.433-0.693,0.911-1.635,1.431-2.823
	c0.521-1.188,1.128-2.693,1.821-4.516L287.909,103.249z"/>
<path fill="#585858" d="M286.894,102.989c0.26-0.676,0.542-1.322,0.846-1.938c0.304-0.615,0.628-1.158,0.975-1.627
	c0.347-0.468,0.724-0.845,1.132-1.131c0.407-0.286,0.862-0.43,1.366-0.43c0.244,0,0.521,0.052,0.833,0.156
	c0.312,0.105,0.612,0.313,0.897,0.624c0.287,0.313,0.525,0.764,0.716,1.353c0.191,0.591,0.286,1.371,0.286,2.343
	c0,0.503-0.026,1.058-0.078,1.666c-0.052,0.607-0.105,1.206-0.155,1.796c0.537-1.146,1.07-2.113,1.6-2.902
	c0.529-0.79,1.05-1.422,1.561-1.9c0.512-0.477,1.019-0.824,1.522-1.04c0.503-0.217,1.006-0.326,1.509-0.326
	c0.225,0,0.49,0.053,0.793,0.156c0.304,0.104,0.59,0.286,0.859,0.547c0.269,0.26,0.494,0.615,0.677,1.067
	c0.182,0.452,0.273,1.032,0.273,1.743c0,0.573-0.043,1.145-0.13,1.718c-0.086,0.573-0.182,1.128-0.285,1.666
	c-0.104,0.538-0.2,1.046-0.286,1.523c-0.087,0.477-0.131,0.898-0.131,1.262c0,0.867,0.156,1.53,0.469,1.99
	c0.312,0.46,0.789,0.69,1.431,0.69c0.52,0,1.014-0.195,1.483-0.585c0.469-0.391,0.906-0.889,1.314-1.497
	c0.407-0.607,0.781-1.275,1.12-2.004c0.338-0.729,0.632-1.427,0.884-2.095c0.251-0.668,0.464-1.258,0.637-1.77
	c0.174-0.512,0.295-0.862,0.365-1.054l1.015,0.261c-0.244,0.608-0.499,1.279-0.768,2.016c-0.269,0.738-0.569,1.479-0.898,2.225
	c-0.33,0.746-0.686,1.47-1.068,2.173c-0.381,0.702-0.806,1.323-1.275,1.86c-0.468,0.538-0.975,0.972-1.522,1.301
	c-0.546,0.33-1.15,0.494-1.808,0.494c-0.555,0-1.037-0.107-1.445-0.325c-0.407-0.216-0.751-0.507-1.028-0.872
	s-0.485-0.798-0.624-1.301c-0.139-0.503-0.208-1.04-0.208-1.613c0-0.642,0.056-1.301,0.169-1.977
	c0.113-0.677,0.234-1.328,0.364-1.952c0.13-0.625,0.252-1.201,0.364-1.731c0.113-0.529,0.169-0.967,0.169-1.314
	c0-0.537-0.104-0.941-0.312-1.21c-0.208-0.269-0.494-0.403-0.859-0.403c-0.504,0-0.994,0.182-1.471,0.546
	c-0.477,0.364-0.936,0.851-1.379,1.457c-0.443,0.608-0.863,1.302-1.262,2.082c-0.399,0.781-0.768,1.584-1.106,2.407
	c-0.338,0.825-0.651,1.645-0.937,2.459c-0.286,0.816-0.533,1.553-0.742,2.213c-0.208,0.66-0.386,1.219-0.533,1.678
	c-0.148,0.46-0.247,0.751-0.299,0.871l-1.51-0.26c0.209-1.024,0.399-2.104,0.573-3.241c0.173-1.135,0.324-2.255,0.455-3.357
	c0.13-1.101,0.234-2.155,0.312-3.161c0.078-1.006,0.118-1.899,0.118-2.68c0-1.058-0.07-1.774-0.209-2.147
	c-0.139-0.373-0.39-0.559-0.754-0.559c-0.313,0-0.608,0.116-0.885,0.351c-0.277,0.234-0.533,0.547-0.767,0.937
	c-0.234,0.39-0.464,0.845-0.69,1.366c-0.226,0.521-0.443,1.076-0.651,1.666L286.894,102.989z"/>
<path fill="#585858" d="M313.436,129.559c0.555,0,1.123-0.222,1.705-0.664c0.581-0.442,1.12-1.145,1.614-2.107
	c0.494-0.963,0.919-2.204,1.275-3.721c0.355-1.518,0.585-3.344,0.69-5.478c-0.053,0.035-0.109,0.065-0.169,0.091
	c-0.061,0.026-0.117,0.065-0.17,0.117c-0.884,0.554-1.761,1.166-2.628,1.835c-0.868,0.668-1.644,1.383-2.329,2.146
	c-0.685,0.763-1.245,1.566-1.678,2.407c-0.434,0.841-0.65,1.713-0.65,2.615c0,0.313,0.055,0.633,0.168,0.963
	c0.113,0.329,0.274,0.628,0.482,0.898c0.208,0.269,0.455,0.484,0.742,0.65C312.772,129.476,313.09,129.559,313.436,129.559z
	 M318.771,115.116c0-2.22,0.104-4.294,0.313-6.219c-0.538,0.971-1.059,1.77-1.561,2.394c-0.504,0.625-1.002,1.12-1.497,1.484
	c-0.494,0.364-0.993,0.616-1.496,0.754c-0.504,0.14-1.016,0.209-1.537,0.209c-0.415,0-0.889-0.065-1.418-0.195
	c-0.53-0.13-1.028-0.394-1.497-0.793c-0.468-0.399-0.863-0.968-1.184-1.705c-0.321-0.738-0.481-1.722-0.481-2.954
	c0-1.283,0.155-2.502,0.468-3.656c0.313-1.153,0.668-2.173,1.067-3.058c0.451-1.04,0.971-2.004,1.561-2.888l0.963,0.338
	c-0.035,0.052-0.147,0.369-0.338,0.95c-0.192,0.582-0.395,1.31-0.612,2.186c-0.217,0.877-0.416,1.839-0.599,2.889
	c-0.182,1.051-0.273,2.06-0.273,3.032c0,1.458,0.264,2.62,0.793,3.487c0.529,0.869,1.28,1.302,2.251,1.302
	c0.521,0,1.032-0.174,1.535-0.521c0.503-0.347,0.998-0.829,1.484-1.445c0.485-0.615,0.971-1.344,1.457-2.185
	s0.963-1.765,1.432-2.772c0.329-1.717,0.723-3.244,1.183-4.58c0.46-1.336,0.941-2.472,1.445-3.409l0.962,0.26
	c-0.347,1.509-0.651,3.006-0.911,4.489c-0.26,1.483-0.482,2.928-0.663,4.333c-0.183,1.405-0.325,2.763-0.43,4.072
	c-0.104,1.31-0.182,2.537-0.234,3.682c0.745-0.537,1.444-1.136,2.095-1.796c0.651-0.659,1.288-1.439,1.912-2.342
	c0.625-0.901,1.245-1.96,1.861-3.174c0.616-1.215,1.253-2.645,1.913-4.295l1.015,0.261c-0.677,1.753-1.332,3.275-1.966,4.567
	c-0.632,1.292-1.292,2.429-1.977,3.409c-0.685,0.981-1.418,1.852-2.199,2.615c-0.78,0.763-1.665,1.492-2.653,2.186
	c-0.053,1.908-0.226,3.59-0.521,5.048c-0.295,1.458-0.66,2.728-1.093,3.812c-0.433,1.084-0.92,1.991-1.457,2.72
	c-0.539,0.728-1.077,1.318-1.614,1.769c-0.538,0.451-1.063,0.771-1.575,0.962c-0.512,0.191-0.95,0.287-1.314,0.287
	c-0.642,0-1.219-0.134-1.73-0.403c-0.512-0.27-0.95-0.621-1.314-1.054c-0.364-0.434-0.642-0.929-0.833-1.483
	c-0.191-0.556-0.285-1.12-0.285-1.692c0-0.989,0.238-1.922,0.715-2.797c0.477-0.877,1.115-1.705,1.913-2.485
	c0.798-0.781,1.713-1.514,2.745-2.198c1.032-0.686,2.103-1.332,3.214-1.939c0.329-0.226,0.65-0.408,0.962-0.546V115.116z"/>
<path fill="#585858" d="M65.39,52.927c-0.151,0-0.377,0.151-0.68,0.453c-0.302,0.303-0.622,0.793-0.957,1.473
	c-0.335,0.68-0.659,1.569-0.97,2.669c-0.31,1.1-0.558,2.454-0.742,4.067h0.479h1.233c0.303-0.84,0.566-1.653,0.793-2.443
	c0.226-0.789,0.423-1.523,0.592-2.203c0.167-0.68,0.294-1.292,0.378-1.838c0.084-0.545,0.125-0.994,0.125-1.347
	C65.642,53.205,65.557,52.927,65.39,52.927z M61.84,66.17c0.285-0.587,0.554-1.179,0.806-1.775s0.495-1.204,0.731-1.826h-0.932
	H61.94c-0.034,0.537-0.058,1.104-0.075,1.699c-0.016,0.596-0.025,1.213-0.025,1.851V66.17z M54.715,59.524
	c0.252,0.151,0.553,0.327,0.906,0.528c0.353,0.202,0.764,0.395,1.233,0.58c0.471,0.185,0.995,0.356,1.574,0.516
	c0.58,0.159,1.213,0.273,1.901,0.34c0.234-1.511,0.537-2.874,0.907-4.092c0.369-1.216,0.776-2.256,1.221-3.121
	c0.443-0.864,0.906-1.528,1.384-1.989s0.944-0.692,1.398-0.692c0.52,0,0.89,0.202,1.108,0.604s0.327,0.941,0.327,1.611
	c0,0.487-0.05,1.024-0.151,1.612c-0.101,0.587-0.235,1.212-0.403,1.876c-0.168,0.662-0.37,1.351-0.604,2.065
	c-0.235,0.713-0.479,1.422-0.731,2.127c1.678-0.151,3.227-0.428,4.645-0.831c1.419-0.403,2.647-0.814,3.689-1.234l0.478,0.931
	c-1.376,0.521-2.803,0.986-4.28,1.398c-1.477,0.411-3.131,0.667-4.96,0.768c-0.42,1.091-0.852,2.127-1.297,3.109
	c-0.444,0.982-0.852,1.835-1.221,2.556c0.017,0.94,0.072,1.96,0.164,3.059c0.092,1.1,0.277,2.127,0.553,3.084
	c0.277,0.957,0.672,1.755,1.183,2.392c0.513,0.638,1.188,0.957,2.027,0.957c0.705,0,1.35-0.298,1.938-0.894
	c0.588-0.595,1.129-1.35,1.624-2.265s0.952-1.917,1.372-3.009c0.42-1.091,0.814-2.123,1.183-3.097l0.982,0.252
	c-0.235,0.604-0.487,1.284-0.755,2.039c-0.269,0.755-0.571,1.523-0.907,2.304c-0.335,0.781-0.705,1.537-1.108,2.266
	c-0.403,0.731-0.848,1.385-1.334,1.964c-0.487,0.579-1.024,1.041-1.612,1.385c-0.587,0.344-1.225,0.516-1.913,0.516
	c-0.739,0-1.431-0.167-2.077-0.503c-0.646-0.335-1.209-0.936-1.687-1.8c-0.479-0.864-0.856-2.039-1.133-3.525
	c-0.277-1.486-0.415-3.378-0.415-5.678c0-1.847,0.101-3.567,0.302-5.162c-1.444-0.184-2.655-0.473-3.638-0.869
	c-0.982-0.393-1.741-0.776-2.279-1.145L54.715,59.524z"/>
<path fill="#585858" d="M77.778,50.031c-0.437,0-0.827,0.214-1.171,0.642c-0.344,0.428-0.654,1.032-0.931,1.813
	c-0.276,0.781-0.515,1.717-0.717,2.807c-0.202,1.091-0.386,2.304-0.554,3.639c-0.168,1.334-0.314,2.769-0.441,4.305
	c-0.125,1.536-0.247,3.135-0.364,4.796c0.788-1.51,1.523-3.009,2.203-4.494c0.68-1.486,1.271-2.908,1.775-4.267
	s0.902-2.632,1.196-3.815s0.441-2.228,0.441-3.134c0-0.268-0.021-0.542-0.063-0.819c-0.042-0.277-0.118-0.524-0.226-0.742
	c-0.11-0.218-0.257-0.394-0.441-0.529C78.298,50.099,78.063,50.031,77.778,50.031z M80.245,52.323c0,1.057-0.181,2.241-0.542,3.549
	c-0.361,1.309-0.852,2.736-1.472,4.28c-0.622,1.545-1.348,3.202-2.178,4.973c-0.831,1.771-1.717,3.639-2.656,5.602
	c-0.085,0.806-0.155,1.616-0.214,2.43c-0.059,0.814-0.113,1.632-0.164,2.455c0.218-0.553,0.492-1.196,0.819-1.926
	c0.327-0.731,0.696-1.486,1.108-2.266c0.411-0.781,0.86-1.548,1.347-2.304c0.487-0.755,1.003-1.431,1.548-2.026
	c0.545-0.596,1.124-1.079,1.738-1.448c0.612-0.369,1.246-0.553,1.901-0.553c0.453,0,0.864,0.085,1.233,0.252
	c0.369,0.168,0.684,0.403,0.944,0.705c0.26,0.302,0.462,0.654,0.604,1.057c0.143,0.403,0.214,0.84,0.214,1.309
	c0,0.604-0.081,1.255-0.239,1.951c-0.16,0.697-0.341,1.407-0.542,2.127c-0.202,0.722-0.383,1.444-0.542,2.166
	c-0.16,0.721-0.239,1.402-0.239,2.039c0,0.521,0.126,0.961,0.378,1.322c0.251,0.362,0.712,0.542,1.384,0.542
	c0.47,0,0.931-0.193,1.385-0.58c0.453-0.385,0.89-0.885,1.309-1.498c0.419-0.612,0.81-1.3,1.17-2.065
	c0.361-0.763,0.697-1.523,1.007-2.279c0.311-0.755,0.588-1.464,0.831-2.127c0.243-0.662,0.441-1.196,0.592-1.598l0.981,0.252
	c-0.285,0.755-0.579,1.553-0.881,2.392c-0.303,0.84-0.626,1.675-0.97,2.505c-0.344,0.831-0.718,1.624-1.12,2.379
	c-0.403,0.755-0.843,1.423-1.322,2.002c-0.478,0.579-1.002,1.04-1.573,1.385c-0.571,0.344-1.209,0.516-1.914,0.516
	c-0.638,0-1.167-0.093-1.586-0.277c-0.42-0.184-0.752-0.436-0.995-0.755c-0.244-0.319-0.415-0.701-0.516-1.146
	c-0.101-0.444-0.151-0.935-0.151-1.473c0-0.57,0.084-1.22,0.252-1.951c0.168-0.73,0.356-1.486,0.567-2.266
	c0.209-0.781,0.398-1.561,0.566-2.342c0.167-0.781,0.252-1.498,0.252-2.153c0-0.369-0.088-0.696-0.264-0.982
	c-0.176-0.284-0.483-0.428-0.919-0.428c-0.689,0-1.351,0.248-1.989,0.743c-0.638,0.495-1.242,1.137-1.813,1.926
	c-0.571,0.79-1.108,1.678-1.611,2.669c-0.503,0.99-0.965,1.977-1.385,2.959c-0.42,0.981-0.793,1.917-1.12,2.807
	s-0.609,1.628-0.843,2.216l-0.981-0.151c0-0.084-0.005-0.197-0.014-0.34c-0.008-0.143-0.012-0.34-0.012-0.592
	c0-0.253-0.005-0.567-0.013-0.944c-0.009-0.378-0.013-0.835-0.013-1.372c0-1.578,0.042-3.659,0.126-6.245
	c0.084-2.584,0.285-5.681,0.603-9.29c0.134-1.763,0.336-3.269,0.605-4.52c0.268-1.25,0.57-2.299,0.906-3.147
	c0.335-0.847,0.692-1.523,1.07-2.026c0.378-0.503,0.743-0.885,1.096-1.146c0.353-0.26,0.68-0.428,0.981-0.503
	C77.274,49.037,77.526,49,77.727,49c0.772,0,1.385,0.302,1.838,0.906S80.245,51.315,80.245,52.323z"/>
<path fill="#585858" d="M97.114,64.433c-0.622,0-1.23,0.198-1.826,0.592c-0.595,0.395-1.129,0.936-1.598,1.625
	c-0.471,0.688-0.852,1.502-1.146,2.442c-0.294,0.94-0.44,1.947-0.44,3.021c0.217,0.084,0.523,0.155,0.919,0.214
	c0.394,0.059,0.877,0.088,1.448,0.088c0.604,0,1.204-0.13,1.8-0.39c0.596-0.26,1.133-0.621,1.611-1.082
	c0.479-0.462,0.864-1.011,1.158-1.649s0.441-1.335,0.441-2.09c0-0.369-0.05-0.721-0.151-1.057c-0.1-0.336-0.252-0.63-0.453-0.881
	c-0.202-0.252-0.45-0.453-0.743-0.604C97.84,64.509,97.5,64.433,97.114,64.433z M96.484,80.37c-0.855,0-1.678-0.151-2.467-0.453
	c-0.789-0.303-1.481-0.76-2.077-1.372c-0.595-0.612-1.07-1.38-1.422-2.304s-0.529-2.006-0.529-3.249c0-1.51,0.218-2.857,0.655-4.04
	c0.436-1.183,0.994-2.182,1.674-2.996c0.68-0.814,1.439-1.436,2.278-1.864c0.84-0.428,1.662-0.642,2.468-0.642
	c1.04,0,1.867,0.344,2.48,1.032c0.612,0.689,0.919,1.578,0.919,2.669c0,0.94-0.176,1.792-0.529,2.555
	c-0.353,0.764-0.818,1.419-1.398,1.964c-0.579,0.545-1.242,0.97-1.988,1.271c-0.748,0.303-1.524,0.453-2.329,0.453
	c-0.386,0-0.752-0.021-1.095-0.063c-0.344-0.042-0.651-0.088-0.92-0.139c0.101,1.041,0.303,1.939,0.604,2.694
	c0.303,0.755,0.68,1.377,1.133,1.863c0.453,0.487,0.961,0.848,1.523,1.082c0.563,0.235,1.146,0.353,1.75,0.353
	c0.755,0,1.451-0.184,2.089-0.553c0.638-0.369,1.226-0.852,1.763-1.448c0.537-0.596,1.028-1.28,1.473-2.052
	c0.444-0.772,0.843-1.557,1.196-2.354c0.353-0.797,0.667-1.578,0.944-2.341c0.277-0.764,0.524-1.439,0.742-2.027l0.982,0.252
	c-0.219,0.554-0.474,1.226-0.768,2.015c-0.294,0.789-0.634,1.616-1.02,2.48c-0.385,0.864-0.839,1.728-1.359,2.593
	c-0.521,0.865-1.108,1.637-1.762,2.316c-0.654,0.68-1.398,1.234-2.228,1.662C98.435,80.157,97.508,80.37,96.484,80.37z"/>
<path fill-rule="evenodd" clip-rule="evenodd" fill="#585858" d="M347.968,100.433c-0.457-0.458-1.09-0.742-1.788-0.742
	c-0.699,0-1.331,0.284-1.789,0.742c-0.458,0.457-0.741,1.09-0.741,1.789c0,0.698,0.283,1.331,0.741,1.788
	c0.458,0.458,1.09,0.742,1.789,0.742c0.699,0,1.331-0.284,1.788-0.742c0.458-0.457,0.742-1.09,0.742-1.788
	C348.71,101.524,348.426,100.89,347.968,100.433z M350.874,97.527c-1.201-1.201-2.862-1.945-4.694-1.945
	c-1.834,0-3.494,0.743-4.695,1.945c-1.201,1.201-1.944,2.862-1.944,4.695c0,1.833,0.742,3.493,1.944,4.695s2.862,1.945,4.695,1.945
	c1.833,0,3.493-0.743,4.694-1.945s1.945-2.862,1.945-4.695C352.819,100.389,352.076,98.728,350.874,97.527z M339.353,98.799
	c0.369-0.734,0.853-1.4,1.429-1.977c0.577-0.576,1.245-1.061,1.982-1.43c-0.525-0.71-1.11-1.387-1.722-1.999
	c-1.13-1.13-2.348-2.037-3.458-2.524c-1.01-0.443-1.908-0.533-2.514-0.1c-0.068,0.049-0.13,0.102-0.186,0.157
	c-0.059,0.066-0.109,0.117-0.162,0.191c-0.431,0.605-0.344,1.498,0.094,2.502c0.482,1.101,1.379,2.31,2.504,3.434
	C337.944,97.676,338.632,98.27,339.353,98.799z M338.932,104.629c-0.885,0.135-1.791,0.203-2.673,0.203
	c-1.588,0-3.078-0.22-4.197-0.658c-1.02-0.399-1.712-0.969-1.836-1.698c-0.014-0.078-0.02-0.163-0.02-0.253
	c0-0.089,0.006-0.171,0.018-0.244c0.138-0.837,1.101-1.425,1.848-1.705c1.13-0.44,2.631-0.661,4.229-0.661
	c0.871,0,1.762,0.065,2.633,0.194c-0.254,0.76-0.39,1.571-0.39,2.415C338.545,103.063,338.681,103.872,338.932,104.629z
	 M342.763,109.052c-0.737-0.369-1.406-0.854-1.982-1.43c-0.575-0.575-1.06-1.242-1.429-1.976c-0.721,0.53-1.409,1.123-2.033,1.747
	c-1.123,1.123-2.021,2.331-2.503,3.432c-0.439,1.003-0.526,1.897-0.097,2.501c0.045,0.063,0.1,0.127,0.164,0.192
	c0.063,0.063,0.118,0.104,0.185,0.158c0.605,0.433,1.504,0.344,2.514-0.1c1.11-0.487,2.327-1.393,3.458-2.524
	C341.654,110.438,342.238,109.761,342.763,109.052z M348.594,109.468c0.13,0.87,0.194,1.762,0.194,2.633
	c0,1.598-0.22,3.1-0.661,4.229c-0.286,0.751-0.832,1.704-1.704,1.847c-0.075,0.012-0.155,0.018-0.244,0.018
	c-0.09,0-0.174-0.006-0.251-0.019c-0.732-0.123-1.3-0.815-1.7-1.835c-0.439-1.12-0.658-2.61-0.658-4.198
	c0-0.881,0.067-1.787,0.202-2.673c0.757,0.252,1.566,0.388,2.407,0.388C347.024,109.858,347.836,109.72,348.594,109.468z
	 M353.009,105.638c-0.369,0.737-0.853,1.406-1.43,1.983c-0.575,0.575-1.242,1.059-1.977,1.428c0.53,0.721,1.123,1.409,1.747,2.033
	c1.124,1.124,2.332,2.022,3.434,2.504c1.003,0.439,1.897,0.525,2.501,0.094c0.062-0.044,0.126-0.098,0.191-0.163
	c0.047-0.047,0.119-0.131,0.157-0.185c0.433-0.604,0.344-1.503-0.1-2.514c-0.487-1.109-1.393-2.326-2.524-3.458
	C354.396,106.748,353.719,106.164,353.009,105.638z M353.425,99.808c0.87-0.13,1.762-0.194,2.633-0.194
	c1.598,0,3.101,0.22,4.23,0.661c1.029,0.401,1.727,0.972,1.847,1.706c0.012,0.073,0.018,0.154,0.018,0.243
	c0,0.09-0.007,0.174-0.02,0.25c-0.123,0.732-0.815,1.301-1.834,1.7c-1.12,0.439-2.611,0.659-4.199,0.659
	c-0.881,0-1.787-0.068-2.673-0.203c0.251-0.757,0.387-1.566,0.387-2.406C353.815,101.378,353.678,100.567,353.425,99.808z
	 M349.602,95.395c0.734,0.369,1.401,0.852,1.977,1.428c0.577,0.578,1.062,1.247,1.431,1.984c0.706-0.523,1.382-1.108,1.999-1.724
	c1.131-1.131,2.037-2.349,2.524-3.459c0.342-0.779,0.608-1.747,0.098-2.514c-0.045-0.064-0.098-0.125-0.156-0.184
	c-0.065-0.065-0.128-0.119-0.191-0.163c-0.604-0.431-1.498-0.344-2.501,0.095c-1.102,0.481-2.31,1.379-3.434,2.504
	C350.725,93.987,350.132,94.675,349.602,95.395z M346.18,94.587c-0.842,0-1.65,0.135-2.407,0.387
	c-0.134-0.885-0.202-1.792-0.202-2.674c0-1.588,0.22-3.078,0.658-4.198c0.4-1.02,0.97-1.712,1.7-1.835
	c0.077-0.013,0.161-0.019,0.251-0.019c0.089,0,0.17,0.006,0.243,0.018c0.916,0.151,1.395,1.07,1.705,1.847
	c0.441,1.13,0.661,2.632,0.661,4.23c0,0.871-0.064,1.762-0.194,2.633C347.836,94.724,347.024,94.587,346.18,94.587z M358.179,90.223
	c-0.096-0.096-0.203-0.185-0.318-0.268c-0.923-0.657-2.154-0.583-3.474-0.006c-1.221,0.534-2.536,1.506-3.741,2.71
	c-0.309,0.31-0.612,0.636-0.906,0.975c0.03-0.433,0.045-0.864,0.045-1.289c0-1.713-0.244-3.342-0.732-4.592
	c-0.416-1.11-1.219-2.259-2.47-2.465c-0.136-0.023-0.271-0.035-0.403-0.035c-0.138,0-0.275,0.012-0.414,0.035
	c-1.118,0.188-1.936,1.111-2.462,2.453c-0.485,1.24-0.729,2.856-0.729,4.56c0,0.438,0.016,0.883,0.048,1.33
	c-0.284-0.326-0.578-0.642-0.879-0.941c-1.21-1.211-2.535-2.191-3.764-2.731c-1.329-0.583-2.566-0.661-3.49,0.001
	c-0.104,0.075-0.207,0.163-0.307,0.263c-0.095,0.09-0.194,0.212-0.27,0.319c-0.658,0.922-0.583,2.154-0.006,3.473
	c0.533,1.221,1.505,2.537,2.71,3.741c0.309,0.31,0.635,0.612,0.975,0.907c-0.433-0.031-0.865-0.045-1.289-0.045
	c-1.713,0-3.341,0.244-4.592,0.731c-1.117,0.434-2.255,1.199-2.465,2.47c-0.023,0.136-0.035,0.272-0.035,0.404
	c0,0.138,0.013,0.277,0.035,0.415c0.19,1.119,1.113,1.936,2.454,2.461c1.24,0.485,2.856,0.728,4.56,0.728
	c0.44,0,0.887-0.016,1.336-0.048c-0.341,0.294-0.668,0.599-0.98,0.91c-1.203,1.204-2.175,2.519-2.709,3.74
	c-0.576,1.319-0.652,2.549,0.005,3.472c0.083,0.116,0.173,0.224,0.27,0.321c0.102,0.102,0.196,0.175,0.309,0.263
	c0.924,0.661,2.162,0.584,3.49,0.001c1.229-0.54,2.554-1.519,3.764-2.73c0.301-0.301,0.594-0.615,0.879-0.942
	c-0.032,0.447-0.048,0.892-0.048,1.33c0,1.704,0.244,3.321,0.729,4.56c0.525,1.342,1.344,2.265,2.462,2.453
	c0.139,0.024,0.276,0.035,0.414,0.035c0.133,0,0.267-0.012,0.403-0.034c1.311-0.216,1.996-1.341,2.47-2.465
	c0.488-1.25,0.732-2.878,0.732-4.591c0-0.425-0.015-0.856-0.045-1.289c0.294,0.339,0.597,0.665,0.906,0.975
	c1.204,1.204,2.52,2.175,3.741,2.71c1.32,0.576,2.551,0.651,3.474-0.006c0.115-0.083,0.222-0.172,0.318-0.268
	c0.092-0.092,0.19-0.204,0.264-0.31c0.661-0.924,0.583-2.162,0-3.49c-0.539-1.229-1.519-2.554-2.73-3.765
	c-0.3-0.301-0.615-0.594-0.941-0.879c0.447,0.032,0.891,0.048,1.33,0.048c1.704,0,3.32-0.243,4.561-0.729
	c1.341-0.525,2.265-1.343,2.453-2.462c0.023-0.138,0.035-0.276,0.035-0.414c0-0.133-0.011-0.267-0.034-0.403
	c-0.185-1.123-1.114-1.944-2.464-2.471c-1.25-0.488-2.879-0.732-4.593-0.732c-0.423,0-0.852,0.015-1.285,0.045
	c0.327-0.284,0.642-0.577,0.941-0.876c1.21-1.21,2.191-2.536,2.73-3.766c0.515-1.174,0.728-2.36-0.003-3.49
	C358.362,90.423,358.276,90.32,358.179,90.223z M346.18,98.697c0.973,0,1.855,0.394,2.493,1.032
	c0.638,0.638,1.032,1.519,1.032,2.494c0,0.973-0.394,1.855-1.032,2.493c-0.638,0.638-1.519,1.032-2.493,1.032
	c-0.974,0-1.856-0.394-2.493-1.032c-0.638-0.638-1.033-1.519-1.033-2.493c0-0.974,0.395-1.856,1.033-2.494
	C344.324,99.091,345.206,98.697,346.18,98.697z"/>
</svg>
