<svg id="plant_icon" data-name="plant icon" xmlns="http://www.w3.org/2000/svg" width="56.8" height="63.626" viewBox="0 0 56.8 63.626">
  <path id="Path_64" data-name="Path 64" d="M305.692,1372.9a10.655,10.655,0,0,0,6.988-18.7c-4.128-3.586-17.326-4.857-22.336-5.412.673,3.116,3.262,17.073,8.365,21.507A10.667,10.667,0,0,0,305.692,1372.9Zm2.9-14a4.43,4.43,0,0,1,.442,6.25,4.561,4.561,0,0,1-6.241.439c-1.5-1.3-3.137-5.505-4.315-9.5C303.106,1356.856,307.509,1357.962,308.593,1358.9Z" transform="translate(-290.345 -1341.898)" fill="#3e7879"/>
  <path id="Path_65" data-name="Path 65" d="M318.91,1372.605a11.795,11.795,0,0,0,15.138-1.514c4.231-4.343,6.549-18.993,7.481-24.513-3.116.489-19.158,2.558-24.448,7.994a11.828,11.828,0,0,0-2.371,12.992,15.378,15.378,0,0,0-3.019,8.59v9.125H296.113a3.119,3.119,0,0,0-2.954,4.1l6.231,18.694a3.112,3.112,0,0,0,2.954,2.131h24.925a3.113,3.113,0,0,0,2.957-2.131l6.231-18.694a3.119,3.119,0,0,0-2.957-4.1H317.922v-9.125A8.131,8.131,0,0,1,318.91,1372.605Zm6.116,31.368H304.591l-4.153-12.463h28.741Zm-3.483-45.051c1.745-1.792,7.275-3.543,12.26-4.667-1.221,5.624-2.913,11.148-4.219,12.49a5.609,5.609,0,1,1-8.041-7.823Z" transform="translate(-284.729 -1346.578)" fill="#3e7879"/>
</svg>
