<svg id="shopping_cart-24px_1_" data-name="shopping_cart-24px (1)" xmlns="http://www.w3.org/2000/svg" width="39.835" height="39.835" viewBox="0 0 39.835 39.835">
  <path id="Path_50" data-name="Path 50" d="M0,0H39.835V39.835H0Z" fill="none"/>
  <path id="Path_51" data-name="Path 51" d="M25.15,20.258a3.3,3.3,0,0,0,2.9-1.71L34,7.776A1.653,1.653,0,0,0,32.553,5.32H7.988L6.428,2H1V5.32H4.32l5.975,12.6-2.241,4.05a3.326,3.326,0,0,0,2.9,4.93H30.876v-3.32H10.959l1.826-3.32ZM9.565,8.639H29.731l-4.581,8.3H13.5Zm1.394,19.917a3.32,3.32,0,1,0,3.32,3.32A3.315,3.315,0,0,0,10.959,28.557Zm16.6,0a3.32,3.32,0,1,0,3.32,3.32A3.315,3.315,0,0,0,27.557,28.557Z" transform="translate(0.66 1.32)" fill="#fff"/>
</svg>
