<svg xmlns="http://www.w3.org/2000/svg" width="53.75" height="57.848" viewBox="0 0 53.75 57.848">
  <path id="spa_icon" data-name="spa icon" d="M101.676,1361.186a43.291,43.291,0,0,0-12.092,2.181,51.011,51.011,0,0,0-9.571-14.594l-2.137-2.211-2.14,2.211a51.032,51.032,0,0,0-9.568,14.594,43.291,43.291,0,0,0-12.092-2.181L51,1361.136l.051,3.074c.009.548.3,13.469,6.866,20.041a16.463,16.463,0,0,0,11.925,4.541,23.6,23.6,0,0,0,3.616-.285c.539.41,1.015.744,1.443,1.03v14.874h5.86v-14.874c.429-.286,1-.619,1.536-1.03a23.525,23.525,0,0,0,3.613.285,16.487,16.487,0,0,0,11.928-4.541c6.568-6.571,6.857-19.493,6.863-20.041l.051-3.074Zm-23.79-5.809c3.181,3.967,7.595,10.767,7.595,16.627,0,6.238-5.068,10.574-7.6,12.354-2.536-1.78-7.607-6.116-7.607-12.354S75.017,1358.939,77.885,1355.377ZM57.27,1367.406a33.847,33.847,0,0,1,7.3,1.714,19.182,19.182,0,0,0-.25,2.884,18.471,18.471,0,0,0,3.506,10.687,9.782,9.782,0,0,1-5.7-2.649C59.122,1377.037,57.782,1371.37,57.27,1367.406Zm36.358,12.63a9.773,9.773,0,0,1-5.708,2.663,18.46,18.46,0,0,0,3.512-10.7,19.087,19.087,0,0,0-.247-2.875,33.9,33.9,0,0,1,7.294-1.714C97.968,1371.373,96.628,1377.037,93.629,1380.037Z" transform="translate(-51 -1346.562)" fill="#3e7879"/>
</svg>
